# xmcd
#
# Track frame offsets: 
#        150
#        14755
#        34617
#        54374
#        75526
#        94031
#        114996
#        133583
#        152110
#        167210
#        189817
#        208892
#
# Disc length: 3066 seconds
#
# Revision: 0
# Processed by: cddbd v1.5.2PL0 Copyright (c) Steve Scherf et al.
# Submitted via: ExactAudioCopy v1.0b1
#
DISCID=950bf80c
DTITLE=Bondi Cigars - Universal Stew
DYEAR=2009
DGENRE=Blues
TTITLE0=Joyful Sound
TTITLE1=Your Fine Frame
TTITLE2=Deeper Shade Of Blue
TTITLE3=You Got What You Wanted
TTITLE4=Cradle Of The Blues
TTITLE5=Stomping Ground
TTITLE6=Better Class Of Fool
TTITLE7=One Time Around
TTITLE8=That's How Strong My Love Is
TTITLE9=Slaughterman
TTITLE10=Out Of My Head
TTITLE11=All The Time In The World
EXTD=
EXTT0=
EXTT1=
EXTT2=
EXTT3=
EXTT4=
EXTT5=
EXTT6=
EXTT7=
EXTT8=
EXTT9=
EXTT10=
EXTT11=
PLAYORDER=
